<svg width="27" height="26" viewBox="0 0 27 26" fill="none" xmlns="http://www.w3.org/2000/svg">
<path d="M25.625 6.59999V24.2C25.625 24.64 25.265 25 24.825 25H21.625V5.79999H24.825C25.265 5.79999 25.625 6.15999 25.625 6.59999ZM18.425 5.79999V25H15.225V10.6H12.025V25H8.825V15.4H5.625V25H2.425C1.985 25 1.625 24.64 1.625 24.2V6.59999C1.625 6.15999 1.985 5.79999 2.425 5.79999H18.425Z" fill="#57B0BA"/>
<path d="M21.625 5.8V25H18.425V5.8V1H21.625V5.8Z" fill="#E5B02C"/>
<path d="M11.625 25H15.625V11H11.625V25Z" fill="#E5B02C"/>
<path d="M5.625 25H8.825V15.4H5.625V25Z" fill="#E5B02C"/>
<path d="M24.025 5.8H24.825C25.2674 5.8 25.625 6.1576 25.625 6.6V24.2C25.625 24.6424 25.2674 25 24.825 25H2.425C1.9826 25 1.625 24.6424 1.625 24.2V6.6C1.625 6.1576 1.9826 5.8 2.425 5.8H16.025M5.625 22.6V15.4H8.825V22.6M12.025 22.6V10.6H15.225V22.6M18.425 22.6V1H21.625V22.6" stroke="#1E365B" stroke-width="1.5" stroke-linecap="round" stroke-linejoin="round"/>
</svg>
