<svg width="17" height="16" viewBox="0 0 17 16" fill="none" xmlns="http://www.w3.org/2000/svg">
<path d="M16.2083 3.33378H14.6117C14.7723 3.01618 14.8622 2.66749 14.875 2.31178C14.8519 1.68295 14.5827 1.08836 14.1255 0.656053C13.6682 0.223747 13.0595 -0.0116894 12.4303 0.000446958C11.681 0.0327235 10.9544 0.267885 10.3282 0.68083C9.70207 1.09377 9.19978 1.669 8.875 2.34511C8.55367 1.67089 8.05522 1.09663 7.4329 0.683668C6.81058 0.270705 6.08776 0.0345556 5.34167 0.000446958C5.31633 0.000446958 5.291 0.000446958 5.26567 0.000446958C4.64553 0.00144007 4.04994 0.242833 3.6041 0.673876C3.15826 1.10492 2.89691 1.69203 2.875 2.31178V2.35578C2.88801 2.69614 2.97418 3.02971 3.12767 3.33378H1.54167C1.36486 3.33378 1.19529 3.40402 1.07026 3.52904C0.945238 3.65407 0.875 3.82364 0.875 4.00045L0.875 6.00045C0.875 6.17726 0.945238 6.34683 1.07026 6.47185C1.19529 6.59688 1.36486 6.66711 1.54167 6.66711H16.2083C16.3851 6.66711 16.5547 6.59688 16.6797 6.47185C16.8048 6.34683 16.875 6.17726 16.875 6.00045V4.00045C16.875 3.82364 16.8048 3.65407 16.6797 3.52904C16.5547 3.40402 16.3851 3.33378 16.2083 3.33378ZM12.451 1.33378C12.7233 1.32672 12.988 1.42409 13.1908 1.60594C13.3936 1.78779 13.5191 2.04033 13.5417 2.31178C13.5322 2.58466 13.4177 2.84334 13.222 3.03378C13.0264 3.22423 12.7647 3.33171 12.4917 3.33378H9.86033C10.275 2.49445 11.0997 1.33378 12.451 1.33378ZM4.20833 2.33378C4.2254 2.06097 4.34655 1.80513 4.54677 1.61905C4.74699 1.43297 5.01101 1.33086 5.28433 1.33378C6.66367 1.33911 7.47167 2.48778 7.891 3.33378H5.291C5.01726 3.33584 4.75301 3.23362 4.55191 3.04788C4.35082 2.86214 4.22798 2.60682 4.20833 2.33378Z" fill="#57B0BA"/>
<path d="M10.2083 8.00046V16.0005H13.5417C14.0721 16.0005 14.5808 15.7897 14.9559 15.4147C15.3309 15.0396 15.5417 14.5309 15.5417 14.0005V8.00046H10.2083Z" fill="#E5B02C"/>
<path d="M7.54166 8.00046H2.20833V14.0005C2.20833 14.5309 2.41904 15.0396 2.79411 15.4147C3.16919 15.7897 3.6779 16.0005 4.20833 16.0005H7.54166V8.00046Z" fill="#E5B02C"/>
</svg>
