<svg width="22" height="22" viewBox="0 0 22 22" fill="none" xmlns="http://www.w3.org/2000/svg">
<path d="M8.9375 6.1875H18.5625V3.4375H8.9375V6.1875ZM18.5625 0.6875V3.4375H8.9375H4.8125V6.1875C4.8125 6.1875 2.0625 6.1875 2.0625 3.4375C2.0625 0.6875 4.8125 0.6875 4.8125 0.6875H18.5625Z" fill="#E5B02C"/>
<path d="M8.9375 6.1875V11.6875L6.875 10.3125L4.8125 11.6875V6.1875V3.4375H8.9375V6.1875Z" fill="#E5B02C"/>
<path fill-rule="evenodd" clip-rule="evenodd" d="M19.9375 6.875V20.625C19.9375 20.625 19.9375 21.3125 19.25 21.3125H2.75C2.75 21.3125 2.0625 21.3125 2.0625 20.625V3.4375C2.0625 6.1875 4.8125 6.1875 4.8125 6.1875V11.6875L6.875 10.3125L8.9375 11.6875V6.1875H18.5625H19.25C19.25 6.1875 19.9375 6.1875 19.9375 6.875Z" fill="#57B0BA"/>
<path d="M8.9375 6.1875H19.25C19.25 6.1875 19.9375 6.1875 19.9375 6.875V20.625C19.9375 20.625 19.9375 21.3125 19.25 21.3125H2.75C2.75 21.3125 2.0625 21.3125 2.0625 20.625V3.4375M2.0625 3.4375C2.0625 0.6875 4.8125 0.6875 4.8125 0.6875H19.9375M2.0625 3.4375C2.0625 6.1875 4.8125 6.1875 4.8125 6.1875M4.8125 3.4375V11.6875L6.875 10.3125L8.9375 11.6875V3.4375H18.5625" stroke="#1E365B" stroke-linecap="round" stroke-linejoin="round"/>
</svg>
